<?xml version="1.0" encoding="utf-8"?>
<!-- Generator: Adobe Illustrator 27.4.0, SVG Export Plug-In . SVG Version: 6.00 Build 0)  -->
<svg version="1.1" id="圖層_1" xmlns="http://www.w3.org/2000/svg" xmlns:xlink="http://www.w3.org/1999/xlink" x="0px" y="0px"
	 viewBox="0 0 563.3 174.8" style="enable-background:new 0 0 563.3 174.8;" xml:space="preserve">
<style type="text/css">
	.st0{fill:#FEF7E6;}
	.st1{enable-background:new    ;}
</style>
<g>
	<g>
		<path class="st0" d="M96.5,147.5c-16.9,0-32.8-6.6-44.8-18.5c-12-12-18.5-27.9-18.5-44.8s6.6-32.8,18.5-44.8s27.9-18.5,44.8-18.5
			s32.8,6.6,44.8,18.5c12,12,18.5,27.9,18.5,44.8s-6.6,32.8-18.5,44.8C129.3,140.9,113.4,147.5,96.5,147.5z M96.5,25.9
			C80.9,25.9,66.3,32,55.3,43S38.2,68.6,38.2,84.2s6.1,30.2,17.1,41.2s25.6,17.1,41.2,17.1s30.2-6.1,41.2-17.1s17.1-25.6,17.1-41.2
			S148.7,54,137.7,43S112,25.9,96.5,25.9z"/>
	</g>
	<g>
		<path class="st0" d="M96.5,139.7c-14.8,0-28.8-5.8-39.3-16.3C46.7,113,40.9,99,40.9,84.2s5.8-28.8,16.3-39.3s24.4-16.3,39.3-16.3
			s28.8,5.8,39.3,16.3C146.2,55.4,152,69.4,152,84.2s-5.8,28.8-16.3,39.3C125.3,134,111.3,139.7,96.5,139.7z M96.5,30.8
			c-29.5,0-53.4,24-53.4,53.4s24,53.4,53.4,53.4s53.4-24,53.4-53.4S125.9,30.8,96.5,30.8z"/>
	</g>
</g>
<g class="st1">
	<path class="st0" d="M198.3,70l-6.2,1.6c-1-7.6-2.3-14.8-3.9-21.7l6.3-2.1C196,54.2,197.2,61.6,198.3,70z M216.2,51.7
		c-2.4,3.2-5.4,6.5-9.2,9.6v1.6c-0.1,5.4-0.4,10.4-0.9,15c3.3,3.9,6.6,8.3,10.1,13.2l-5,7.3c-2.6-5-4.8-9-6.6-12
		c-2.1,8.6-5.3,15.6-9.7,20.8l-6.1-5.4c7-8.1,10.6-21,10.7-38.9V34.6h7.5v17.8c1.7-2.2,3.3-4.3,4.7-6.5L216.2,51.7z M233.3,86.9
		c-3.9,7.7-8.5,14.5-13.8,20.1l-6.7-4.8c5.3-5.2,9.9-11.5,13.7-18.7L233.3,86.9z M224.4,50V34.1h7.9V50h10.5V34.1h7.8V50h8.4v7.7
		h-8.4V74h10.6v7.7h-47.5V74h10.7V57.7h-8V50H224.4z M242.8,74V57.7h-10.5V74H242.8z M261.7,102.2l-6.9,4.8
		c-3.4-5.9-8-12.5-13.7-19.7l6.5-4C253.6,90.6,258.4,96.8,261.7,102.2z"/>
	<path class="st0" d="M289.1,54.2V34.5h8.2v19.7h7.8v8.1h-7.8v23.1c3.2-1.2,6.3-2.4,9.5-3.9v8.2c-7.8,3.5-16.2,6.3-25,8.7l-2.1-8.4
		c3.2-0.6,6.3-1.3,9.5-2.1V62.3h-8.5v-8.1H289.1z M324.1,41.1c-0.9-2.1-1.8-4.1-2.8-5.9l8.6-1.4c0.9,2.2,1.7,4.7,2.5,7.3H350v7.7
		h-4.7c-1.6,5.1-3.2,9.7-5.1,13.9h11.5v7.9h-46.2v-7.9h11.2c-1.4-4.9-3.1-9.6-5.1-13.9h-4v-7.7C307.6,41.1,324.1,41.1,324.1,41.1z
		 M347.6,106.9h-7.9v-3.7h-21.2v3.7h-7.8V75.8h37v31.1H347.6z M339.7,95.4V83.5h-21.2v11.9H339.7z M337.2,48.8h-17.4
		c1.6,4.1,3.1,8.8,4.4,13.9h8.2C334.2,58.3,335.8,53.6,337.2,48.8z"/>
	<path class="st0" d="M374.5,47.9V40h60.9v7.9h-26.3v47.3h31.1v8h-70.7v-8h31.2V47.9H374.5z"/>
	<path class="st0" d="M465,58V38.3h8.2V58h8.5v8.1h-8.5v23c3.2-1.3,6.4-2.5,9.6-3.9v8.4c-8.1,3.5-16.6,6.4-25.6,8.8l-2.1-8.4
		c3.3-0.6,6.6-1.3,9.9-2.2V66.1h-8.6V58H465z M483,57.3v-8h18.6c-1.3-3.8-2.6-7.3-4.1-10.7l8.9-1.4c1.3,3.6,2.6,7.6,3.9,12.1H527v8
		h-26.2v4.4c0,2.3-0.1,4.5-0.2,6.7H524c-0.3,19.2-1.1,31.2-2.4,35.9c-1.6,3.9-5,5.9-10.3,6c-2.7,0-5.8-0.2-9.4-0.4l-2.4-7.1
		c4.3,0.2,7.9,0.4,10.8,0.4c2.4-0.1,3.9-1.3,4.6-3.6c0.5-2.8,0.7-10.7,0.9-23.5h-16c-2.1,15.1-7.3,26.6-15.6,34.6l-6.5-5.7
		c9.8-9,14.8-23.5,15-43.4v-4.4L483,57.3L483,57.3z"/>
	<path class="st0" d="M427.8,56.6"/>
	<line class="st0" x1="432.5" y1="123.3" x2="425.1" y2="120.5"/>
	<path class="st0" d="M461.1,124.1"/>
</g>
<g>
	<g>
		<path class="st0" d="M216.6,138.7c0-3.8,2.6-6.1,5.4-6.1s5.4,2.2,5.4,6.1c0,3.8-2.6,6-5.4,6C219.1,144.6,216.6,142.4,216.6,138.7z
			 M224.9,138.7c0-2.5-1.1-4.1-2.9-4.1s-2.9,1.6-2.9,4.1s1.1,4,2.9,4S224.9,141,224.9,138.7z"/>
		<path class="st0" d="M283.2,132.8h2l0.2,1.6h0.1c1.1-1,2.3-1.9,3.8-1.9c2.5,0,3.6,1.6,3.6,4.6v7.2h-2.4v-6.9c0-2-0.5-2.8-1.9-2.8
			c-1.1,0-1.8,0.5-2.8,1.6v8.2h-2.4V133L283.2,132.8L283.2,132.8z"/>
		<g>
			<path class="st0" d="M204.2,131h-5.5v-2h11.5v2l0,0l-6,10l-2,3.4h-4l8.6-13.4H204.2z"/>
			<path class="st0" d="M205.4,142.3l5.5,0l0,2l-11.5-0.1l0-2l0,0l6.1-10l2-3.3l4,0l-8.7,13.3L205.4,142.3z"/>
		</g>
		<path class="st0" d="M234,132.8h2l0.2,1.6h0.1c1.1-1,2.3-1.9,3.8-1.9c2.5,0,3.6,1.6,3.6,4.6v7.2h-2.4v-6.9c0-2-0.5-2.8-1.9-2.8
			c-1.1,0-1.8,0.5-2.8,1.6v8.2h-2.4V133L234,132.8L234,132.8z"/>
		<g>
			<path class="st0" d="M256.1,153.5c-3.1,0-4.2-1.7-5.6-3.6l1.3-1c2.1,2.7,3.7,2.7,4.1,2.7c1.1,0,2.9-0.8,2.9-2.2v-5.8v-1.9v-9.2
				h2.1l0.4,16.2C261.4,151.6,258.8,153.4,256.1,153.5z"/>
			<path class="st0" d="M250.3,138.6c0-3.8,2.6-6.1,5.4-6.1s5.4,2.2,5.4,6.1c0,3.8-2.6,6-5.4,6C252.8,144.5,250.3,142.3,250.3,138.6
				z M258.6,138.6c0-2.5-1.1-4.1-2.9-4.1s-2.9,1.6-2.9,4.1s1.1,4,2.9,4S258.6,140.9,258.6,138.6z"/>
		</g>
	</g>
	<path class="st0" d="M267.2,138.5c0-3.8,2.6-6.1,5.4-6.1s5.4,2.2,5.4,6.1c0,3.8-2.6,6-5.4,6C269.7,144.4,267.2,142.2,267.2,138.5z
		 M275.5,138.5c0-2.5-1.1-4.1-2.9-4.1s-2.9,1.6-2.9,4.1s1.1,4,2.9,4S275.5,140.8,275.5,138.5z"/>
</g>
<image style="overflow:visible;" width="658" height="658" xlink:href="../../../Downloads/pngwing.com.png"  transform="matrix(0.1462 0 0 0.1462 45.6512 41.3962)">
</image>
</svg>
