<?xml version="1.0" encoding="utf-8"?>
<!-- Generator: Adobe Illustrator 27.4.0, SVG Export Plug-In . SVG Version: 6.00 Build 0)  -->
<svg version="1.1" id="圖層_1" xmlns="http://www.w3.org/2000/svg" xmlns:xlink="http://www.w3.org/1999/xlink" x="0px" y="0px"
	 viewBox="0 0 563.3 174.8" style="enable-background:new 0 0 563.3 174.8;" xml:space="preserve">
<style type="text/css">
	.st0{fill:#FEF7E6;}
	.st1{enable-background:new    ;}
	.st2{fill:none;}
</style>
<g>
	<g>
		<path class="st0" d="M96.5,147.5c-16.9,0-32.8-6.6-44.8-18.5c-12-12-18.5-27.9-18.5-44.8s6.6-32.8,18.5-44.8s27.9-18.5,44.8-18.5
			s32.8,6.6,44.8,18.5c12,12,18.5,27.9,18.5,44.8s-6.6,32.8-18.5,44.8C129.3,140.9,113.4,147.5,96.5,147.5z M96.5,25.9
			C80.9,25.9,66.3,32,55.3,43S38.2,68.6,38.2,84.2s6.1,30.2,17.1,41.2s25.6,17.1,41.2,17.1s30.2-6.1,41.2-17.1s17.1-25.6,17.1-41.2
			S148.7,54,137.7,43S112,25.9,96.5,25.9z"/>
	</g>
	<g>
		<path class="st0" d="M96.5,139.7c-14.8,0-28.8-5.8-39.3-16.3C46.7,113,40.9,99,40.9,84.2s5.8-28.8,16.3-39.3s24.4-16.3,39.3-16.3
			s28.8,5.8,39.3,16.3C146.2,55.4,152,69.4,152,84.2s-5.8,28.8-16.3,39.3C125.3,134,111.3,139.7,96.5,139.7z M96.5,30.8
			c-29.5,0-53.4,24-53.4,53.4s24,53.4,53.4,53.4s53.4-24,53.4-53.4S125.9,30.8,96.5,30.8z"/>
	</g>
</g>
<g class="st1">
	<path class="st0" d="M372.3,56.6v-7.9h60.9v7.9h-26.3v47.3H438v8h-70.7v-8h31.2V56.6H372.3z"/>
	<path class="st0" d="M462.6,61.5V41.8h8.2v19.7h8.5v8.1h-8.5v23c3.2-1.3,6.4-2.5,9.6-3.9v8.4c-8.1,3.5-16.6,6.4-25.6,8.8l-2.1-8.4
		c3.3-0.6,6.6-1.3,9.9-2.2V69.6H454v-8.1H462.6z M480.6,60.8v-8h18.6c-1.3-3.8-2.6-7.3-4.1-10.7l8.9-1.4c1.3,3.6,2.6,7.6,3.9,12.1
		h16.7v8h-26.2v4.4c0,2.3-0.1,4.5-0.2,6.7h23.4c-0.3,19.2-1.1,31.2-2.4,35.9c-1.6,3.9-5,5.9-10.3,6c-2.7,0-5.8-0.2-9.4-0.4l-2.4-7.1
		c4.3,0.2,7.9,0.4,10.8,0.4c2.4-0.1,3.9-1.3,4.6-3.6c0.5-2.8,0.7-10.7,0.9-23.5h-16c-2.1,15.1-7.3,26.6-15.6,34.6l-6.5-5.7
		c9.8-9,14.8-23.5,15-43.4v-4.4L480.6,60.8L480.6,60.8z"/>
	<path class="st0" d="M425.4,60.1"/>
	<line class="st2" x1="430.1" y1="126.8" x2="422.7" y2="124"/>
	<path class="st0" d="M458.7,127.6"/>
</g>
<g>
	<g>
		<path class="st0" d="M216.6,138.7c0-3.8,2.6-6.1,5.4-6.1s5.4,2.2,5.4,6.1c0,3.8-2.6,6-5.4,6C219.1,144.6,216.6,142.4,216.6,138.7z
			 M224.9,138.7c0-2.5-1.1-4.1-2.9-4.1s-2.9,1.6-2.9,4.1s1.1,4,2.9,4S224.9,141,224.9,138.7z"/>
		<path class="st0" d="M283.2,132.8h2l0.2,1.6h0.1c1.1-1,2.3-1.9,3.8-1.9c2.5,0,3.6,1.6,3.6,4.6v7.2h-2.4v-6.9c0-2-0.5-2.8-1.9-2.8
			c-1.1,0-1.8,0.5-2.8,1.6v8.2h-2.4V133L283.2,132.8L283.2,132.8z"/>
		<g>
			<path class="st0" d="M204.2,131h-5.5v-2h11.5v2l0,0l-6,10l-2,3.4h-4l8.6-13.4H204.2z"/>
			<path class="st0" d="M205.4,142.3h5.5v2l-11.5-0.1v-2l0,0l6.1-10l2-3.3h4l-8.7,13.3L205.4,142.3z"/>
		</g>
		<path class="st0" d="M234,132.8h2l0.2,1.6h0.1c1.1-1,2.3-1.9,3.8-1.9c2.5,0,3.6,1.6,3.6,4.6v7.2h-2.4v-6.9c0-2-0.5-2.8-1.9-2.8
			c-1.1,0-1.8,0.5-2.8,1.6v8.2h-2.4V133L234,132.8L234,132.8z"/>
		<g>
			<path class="st0" d="M256.1,153.5c-3.1,0-4.2-1.7-5.6-3.6l1.3-1c2.1,2.7,3.7,2.7,4.1,2.7c1.1,0,2.9-0.8,2.9-2.2v-5.8v-1.9v-9.2
				h2.1l0.4,16.2C261.4,151.6,258.8,153.4,256.1,153.5z"/>
			<path class="st0" d="M250.3,138.6c0-3.8,2.6-6.1,5.4-6.1c2.8,0,5.4,2.2,5.4,6.1c0,3.8-2.6,6-5.4,6
				C252.8,144.5,250.3,142.3,250.3,138.6z M258.6,138.6c0-2.5-1.1-4.1-2.9-4.1s-2.9,1.6-2.9,4.1s1.1,4,2.9,4
				S258.6,140.9,258.6,138.6z"/>
		</g>
	</g>
	<path class="st0" d="M267.2,138.5c0-3.8,2.6-6.1,5.4-6.1s5.4,2.2,5.4,6.1c0,3.8-2.6,6-5.4,6C269.7,144.4,267.2,142.2,267.2,138.5z
		 M275.5,138.5c0-2.5-1.1-4.1-2.9-4.1s-2.9,1.6-2.9,4.1s1.1,4,2.9,4S275.5,140.8,275.5,138.5z"/>
</g>
<g>
	<g>
		<rect x="202.5" y="51.9" class="st0" width="34.4" height="5.3"/>
		<line class="st2" x1="164.6" y1="48.2" x2="164.6" y2="43.2"/>
		<rect x="216.5" y="43.2" class="st0" width="5.4" height="64.9"/>
		<polygon class="st0" points="240.7,42.1 252.7,43.2 246.7,57.2 261,57.2 264.5,51.9 269.6,59.9 258.5,73.1 255.1,68.9 261,61.5 
			245.6,61.5 236.9,75.2 		"/>
		<path class="st0" d="M245.9,64.8c0,0-3.9,33.1-18.7,42.5c0,0,13.8,3.4,21.3-23.3c1.6,13.7,15.9,26.2,15.9,26.2l5.1-7.2
			c0,0-16.6-16.3-16.3-26.5s0-11.7,0-11.7H245.9z"/>
	</g>
	<rect x="202.3" y="91.7" class="st0" width="34.4" height="5.3"/>
	<rect x="204.6" y="60.9" class="st0" width="28.8" height="5.3"/>
	<rect x="204.6" y="71.5" class="st0" width="28.8" height="5.3"/>
	
		<rect x="204.8" y="61.6" transform="matrix(1 -9.208721e-03 9.208721e-03 1 -0.6833 1.9136)" class="st0" width="5.3" height="27.1"/>
	
		<rect x="228" y="62.7" transform="matrix(1 -9.208721e-03 9.208721e-03 1 -0.6924 2.1273)" class="st0" width="5.3" height="27.1"/>
	
		<rect x="204.9" y="81.6" transform="matrix(1 -6.169902e-03 6.169902e-03 1 -0.5157 1.3494)" class="st0" width="27.1" height="5.3"/>
</g>
<g>
	<g>
		<polygon class="st0" points="286.6,52.9 293.3,68.1 299.4,65.8 291.4,51.1 		"/>
		<polygon class="st0" points="313.1,53.3 306.3,68.4 302.7,64.9 310.6,50.2 		"/>
		<polygon class="st0" points="297.8,78.3 290.4,100.7 283.8,97.3 292.5,75.5 		"/>
		<polygon class="st0" points="302.7,77.7 310.1,100.1 316.8,96.7 308,74.9 		"/>
		<rect x="296.3" y="44.9" class="st0" width="6.4" height="65.3"/>
		<rect x="286.6" y="69.3" class="st0" width="26.8" height="5.5"/>
		<polygon class="st0" points="325.1,46.3 330.4,52 335.7,52 328.9,43.2 		"/>
		<path class="st0" d="M318.8,85.4c0,0-3.6,25.7-7.7,23.8c-8.4,6.8,3.4-15.3,4.2-57.3c0,0,29.9-0.4,32.5-0.4s5.3,5.7,5.3,5.7h-31.6"
			/>
	</g>
	<rect x="319.3" y="60.1" class="st0" width="28.8" height="5.3"/>
	<rect x="319.3" y="69.5" class="st0" width="28.8" height="5.3"/>
	<rect x="319.3" y="78.3" class="st0" width="28.8" height="5.3"/>
	<rect x="319.3" y="87.2" class="st0" width="28.8" height="5.3"/>
	<rect x="318.5" y="102" class="st0" width="28.8" height="5.3"/>
	<rect x="341" y="60.6" class="st0" width="7.1" height="23"/>
	<rect x="329.4" y="55.3" class="st0" width="7.1" height="37.2"/>
	<rect x="318.5" y="88.7" class="st0" width="6.5" height="21.5"/>
	<rect x="341.2" y="88.7" class="st0" width="6.5" height="21.5"/>
</g>
</svg>
